<svg width="550" height="550" viewBox="0 0 550 550" fill="none" xmlns="http://www.w3.org/2000/svg">
<rect width="550" height="550" rx="150" fill="white"/>
<g clip-path="url(#clip0_379_34)">
<path d="M158.498 346.812H126V363.96H158.498V346.812Z" fill="#9F001D"/>
<path d="M203.883 186.114C196.352 187.268 189.345 189.257 182.902 192.202C172.271 197.016 163.693 203.978 157.169 213.129V186.671H126V333.046H158.498V272.65C158.498 253.712 163.331 239.15 173.076 229.004C181.049 220.649 191.318 215.755 203.883 214.283V186.114Z" fill="black"/>
<path d="M340.922 185.438C329.606 186.432 319.176 189.178 309.713 193.713C297.632 199.522 288.209 207.559 281.443 217.784C275.564 207.082 267.228 198.925 256.395 193.355C245.562 187.785 233.159 185 219.145 185H217.856V213.965C230.099 214.92 239.763 219.216 246.771 226.816C254.784 235.529 258.811 248.46 258.811 265.608V270.382H291.35C291.712 252.518 296.545 238.712 305.887 228.964C314.747 219.694 326.465 214.681 341.003 213.885V185.438H340.922Z" fill="black"/>
<path d="M404.187 204.416C391.824 192.321 375.394 185.875 354.856 185.08V214.482C365.085 216.034 373.3 220.132 379.461 226.816C387.193 235.211 391.139 247.545 391.421 263.778H424V261.947C424 236.524 417.396 217.347 404.187 204.416Z" fill="black"/>
<path d="M291.229 286.894H258.731V363.96H291.229V286.894Z" fill="#D6001F"/>
<path d="M424 274.48H391.462V363.96H424V274.48Z" fill="#FF001F"/>
</g>
<defs>
<clipPath id="clip0_379_34">
<rect width="298" height="179" fill="white" transform="translate(126 185)"/>
</clipPath>
</defs>
</svg>
